<svg width="180" height="140" viewBox="0 0 180 140" fill="none" xmlns="http://www.w3.org/2000/svg">
<g id="Group 111">
<rect id="Rectangle 39" x="0.5" y="0.5" width="179" height="139" stroke="#181823"/>
<g id="Group 67">
<g id="Group">
<path id="Vector" d="M74.5125 69.0984C73.1276 73.3121 69.7406 75.6866 65.1606 75.6866C59.4645 75.6866 55 71.1672 55 65.3819C55 59.6741 59.4645 55.0003 64.9681 55.0003C70.0865 55.0003 75.0132 59.2146 74.9747 66.2246H58.31C58.7331 70.3242 61.8891 72.7376 65.1606 72.7376C67.9701 72.7376 69.971 71.3968 71.0491 69.0984H74.5125ZM71.3571 63.3134C70.5487 60.095 67.8547 57.9501 64.9681 57.9501C62.2359 57.9501 59.3493 59.9426 58.5027 63.3134H71.3571ZM86.4818 75.6869C83.6338 75.6869 81.1704 74.1548 79.7467 72.2395V84H76.4752V55.4984H79.6312V58.6393C81.017 56.6479 83.5565 55 86.4818 55C92.1773 55 96.3727 59.6355 96.3727 65.3056C96.3727 71.0523 92.1773 75.6869 86.4818 75.6869ZM86.4818 57.9887C82.8254 57.9887 79.7467 61.2834 79.7467 65.3056C79.7467 69.3658 82.8254 72.699 86.4818 72.699C90.1762 72.699 93.1012 69.3658 93.1012 65.3056C93.1012 61.2834 90.1762 57.9887 86.4818 57.9887ZM97.7967 55.4984H101.068V75.2274H97.7967V55.4984ZM102.529 65.3937C102.529 59.6366 107.224 55.0059 113.167 55.0059C119.112 55.0059 123.807 59.6366 123.807 65.3937C123.807 71.1507 119.069 75.6973 113.167 75.6973C107.267 75.6973 102.529 71.1507 102.529 65.3937ZM114.066 58.149C108.65 57.6777 105.638 61.7815 105.638 66.5627C105.638 71.3428 109.597 75.2196 114.478 75.2196C116.305 75.2229 118.089 74.6668 119.589 73.6268L118.363 70.5214C119.629 69.2086 120.361 67.3937 120.361 65.3897C120.361 61.4272 117.581 58.4782 114.066 58.149Z" fill="#8491A0"/>
<path id="Vector_2" d="M111.213 67.3765L120.864 75.1926H125.999L116.597 67.3765" fill="#8491A0"/>
</g>
</g>
</g>
</svg>
