<svg width="180" height="140" viewBox="0 0 180 140" fill="none" xmlns="http://www.w3.org/2000/svg">
<g id="Group 112">
<rect id="Rectangle 39" x="0.5" y="0.5" width="179" height="139" stroke="#181823"/>
<g id="Group 68">
<path id="Vector" d="M102.775 56H76.3338C76.2554 56 76.1796 56.0276 76.1195 56.0779C76.0594 56.1282 76.019 56.198 76.0052 56.2751C75.9914 56.3523 76.0052 56.4318 76.0442 56.4998C76.0832 56.5677 76.1448 56.6198 76.2183 56.6469L100.134 64.4771C100.162 64.486 100.191 64.4851 100.218 64.4744C100.245 64.4637 100.267 64.444 100.281 64.4187L103.849 57.7988C103.95 57.613 104 57.4043 103.995 57.1932C103.99 56.9822 103.931 56.7759 103.823 56.5946C103.715 56.4133 103.561 56.2633 103.378 56.159C103.194 56.0548 102.987 56 102.775 56Z" fill="#8491A0"/>
<path id="Vector_2" d="M76.0059 83.6785C76.0059 83.7504 76.0299 83.8202 76.074 83.877C76.1182 83.9337 76.1801 83.9741 76.2498 83.9917C76.3195 84.0093 76.3931 84.0032 76.459 83.9742C76.5248 83.9453 76.5791 83.8952 76.6133 83.8319L81.2136 75.3098C81.3181 75.1162 81.4731 74.9544 81.6621 74.8417C81.851 74.729 82.067 74.6694 82.2871 74.6694H94.024C94.2441 74.6694 94.4602 74.6099 94.6492 74.497C94.8383 74.3842 94.9932 74.2223 95.0977 74.0285L98.6047 67.5258C98.6126 67.511 98.6166 67.4944 98.6163 67.4776C98.6159 67.4608 98.6112 67.4444 98.6026 67.4299C98.594 67.4155 98.5818 67.4036 98.5672 67.3953C98.5526 67.387 98.536 67.3826 98.5192 67.3826H77.2257C76.9022 67.3826 76.5919 67.5112 76.3632 67.7399C76.1344 67.9687 76.0059 68.279 76.0059 68.6025V83.6785Z" fill="#8491A0"/>
</g>
</g>
</svg>
