<svg width="180" height="140" viewBox="0 0 180 140" fill="none" xmlns="http://www.w3.org/2000/svg">
<g id="Group 115">
<rect id="Rectangle 39" x="0.5" y="0.5" width="179" height="139" stroke="#181823"/>
<path id="Vector" d="M98.2529 66.8638C98.407 66.8638 98.5587 66.8537 98.7074 66.834L104.517 75.2837C103.975 75.8904 103.646 76.6908 103.646 77.5681C103.646 79.4634 105.182 81 107.078 81C108.973 81 110.51 79.4634 110.51 77.5681C110.51 75.6727 108.973 74.1362 107.078 74.1362C106.635 74.1362 106.212 74.2199 105.824 74.3725L100.247 66.2255C101.117 65.603 101.685 64.5837 101.685 63.4319C101.685 61.5365 100.148 60 98.2529 60C96.3575 60 94.821 61.5365 94.821 63.4319C94.821 64.6279 95.4328 65.681 96.3605 66.2953L90.8351 74.3096C90.4955 74.1971 90.1323 74.1362 89.7549 74.1362C89.4269 74.1362 89.1097 74.1822 88.8094 74.2681L83.3127 66.2953C84.2404 65.681 84.8521 64.6279 84.8521 63.4319C84.8521 61.5365 83.3156 60 81.4202 60C79.5248 60 77.9883 61.5365 77.9883 63.4319C77.9883 64.5788 78.5509 65.5943 79.4151 66.2175L73.7627 74.4037C73.3535 74.2314 72.9038 74.1362 72.4319 74.1362C70.5365 74.1362 69 75.6727 69 77.5681C69 79.4634 70.5365 81 72.4319 81C74.3273 81 75.8638 79.4634 75.8638 77.5681C75.8638 76.7409 75.5712 75.9821 75.0838 75.3895L80.9658 66.834C81.1145 66.8537 81.2662 66.8638 81.4202 66.8638C81.5232 66.8638 81.6252 66.8593 81.7258 66.8504L87.4162 75.0564C86.7436 75.6829 86.323 76.5764 86.323 77.5681C86.323 79.4634 87.8595 81 89.7549 81C91.6503 81 93.1868 79.4634 93.1868 77.5681C93.1868 76.6253 92.8067 75.7713 92.1914 75.1511L97.9473 66.8504C98.048 66.8593 98.1499 66.8638 98.2529 66.8638Z" fill="#8491A0"/>
</g>
</svg>
