<svg width="180" height="140" viewBox="0 0 180 140" fill="none" xmlns="http://www.w3.org/2000/svg">
<g id="Group 114">
<rect id="Rectangle 39" x="0.5" y="0.5" width="179" height="139" stroke="#181823"/>
<g id="Group 110">
<path id="Vector" d="M20.9638 65.7042C20.9638 65.3745 20.8519 65.0904 20.6277 64.851C20.4034 64.6125 20.1257 64.4923 19.7939 64.4923C18.7487 64.4923 17.662 65.6054 16.5337 67.831C15.489 69.8424 14.966 71.441 14.966 72.6277C14.966 73.6999 15.3308 74.2353 16.0608 74.2353C17.0892 74.2353 18.1181 73.1963 19.1465 71.1194C19.8436 69.7018 20.3915 68.2015 20.7893 66.6191C20.905 66.1574 20.9638 65.8524 20.9638 65.7042ZM23.9749 71.9355V71.9854C23.9586 72.0182 23.95 72.0429 23.95 72.059C23.602 72.8999 23.1454 73.6168 22.5812 74.2106C21.8679 74.9365 21.1211 75.2985 20.3413 75.2985C19.4453 75.2985 18.9978 74.7631 18.9978 73.6913C18.9978 73.4115 19.0222 73.1388 19.0719 72.8752C17.9608 74.4909 16.7498 75.2985 15.4383 75.2985C14.6585 75.2985 14.0451 74.9935 13.5972 74.384C13.1994 73.8562 13 73.1887 13 72.3806C13 70.7322 13.7219 68.9108 15.1648 66.9156C16.7082 64.8054 18.2759 63.7507 19.8684 63.7507C20.5488 63.7507 21.1211 64.0476 21.5858 64.641C21.7182 64.1465 21.984 63.899 22.3823 63.899C23.1454 63.899 23.5269 64.0315 23.5269 64.2947C23.5269 64.3446 23.3361 64.9374 22.9546 66.0747C21.4773 70.4766 20.7396 73.0073 20.7396 73.6666C20.7396 73.9797 20.8553 74.1365 21.0881 74.1365C21.5519 74.1365 22.0873 73.716 22.6931 72.8752C23.2988 72.0343 23.6096 71.6139 23.6263 71.6139C23.8587 71.6139 23.9749 71.7217 23.9749 71.9355Z" fill="#8491A0"/>
<path id="Vector_2" d="M36.6168 62.0443C36.6168 60.66 36.2807 59.6666 35.6095 59.0652C34.9368 58.4633 33.9203 58.1707 32.5606 58.1873C31.4987 58.1873 30.9676 58.4182 30.9676 58.8795V65.9265C31.5814 66.0258 32.029 66.0747 32.3115 66.0747C35.1983 66.059 36.6331 64.7151 36.6168 62.0443ZM39.5538 62.0443C39.5538 65.3417 37.3048 66.9897 32.8092 66.9897C32.2278 66.9897 31.6144 66.9574 30.9676 66.8914V71.2928C30.9676 72.8424 31.2415 73.7327 31.7889 73.9636C31.8219 73.9797 32.1786 74.0871 32.8594 74.2852C33.2572 74.384 33.4475 74.5161 33.4317 74.6804C33.415 74.8785 33.2821 74.9773 33.033 74.9773H26.264C26.0154 74.9773 25.8824 74.8785 25.8662 74.6804C25.8495 74.5161 26.0402 74.384 26.4385 74.2852C27.1183 74.0871 27.475 73.9797 27.5085 73.9636C28.0559 73.7327 28.3294 72.8424 28.3294 71.2928V61.1545C28.3294 59.6049 28.0559 58.7146 27.5085 58.4837C27.475 58.4676 27.1183 58.3598 26.4385 58.1621C26.0402 58.0633 25.8495 57.9317 25.8662 57.7664C25.8824 57.5683 26.0154 57.47 26.264 57.47H33.556C35.2815 57.47 36.6747 57.8244 37.7366 58.5332C38.9476 59.3241 39.5538 60.4947 39.5538 62.0443Z" fill="#8491A0"/>
<path id="Vector_3" d="M45.7159 74.6802C45.6991 74.8783 45.5662 74.9771 45.3176 74.9771H39.9423C39.6932 74.9771 39.5603 74.8783 39.544 74.6802C39.5273 74.5486 39.7181 74.4327 40.1163 74.3339C40.6303 74.2189 40.9874 74.0954 41.1863 73.9633C41.3852 73.8317 41.4933 73.4688 41.51 72.875V71.2926V59.893C41.51 59.4483 41.4684 59.1552 41.3852 59.0151C41.3025 58.8754 41.0534 58.8051 40.6394 58.8051C40.0083 58.8051 39.6932 58.7058 39.6932 58.5082C39.6932 58.2944 39.8921 58.1457 40.2904 58.0631C41.2528 57.865 42.1985 57.5932 43.1279 57.2474C43.2436 57.2141 43.3354 57.1975 43.4014 57.1975C43.5668 57.1975 43.6667 57.2925 43.7002 57.4821C43.7332 57.6716 43.7499 58.0716 43.7499 58.6816V71.2926C43.7499 72.9581 43.8575 73.8479 44.0731 73.9633C44.1893 74.0294 44.5464 74.1363 45.1436 74.285C45.5418 74.4004 45.7321 74.532 45.7159 74.6802Z" fill="#8491A0"/>
<path id="Vector_4" d="M53.056 71.6746V68.9187C51.8282 69.1487 50.9074 69.4275 50.294 69.7553C49.2986 70.3135 48.8009 71.0841 48.8009 72.0684C48.8009 72.5933 48.9539 73.0157 49.2608 73.3354C49.5678 73.6556 49.9866 73.8152 50.5177 73.8152C51.1809 73.8152 51.7704 73.61 52.2848 73.2C52.7988 72.79 53.056 72.2812 53.056 71.6746ZM57.6099 73.2708C57.1624 74.5406 56.3822 75.1748 55.2711 75.1748C54.0767 75.1748 53.3462 74.5739 53.0813 73.3696C51.8196 74.5739 50.5426 75.1748 49.2484 75.1748C48.4189 75.1748 47.7634 74.9368 47.2824 74.4598C46.801 73.9829 46.5605 73.333 46.5605 72.5107C46.5605 71.0142 47.3733 69.8959 48.9998 69.1553C49.9287 68.7444 51.2808 68.4233 53.056 68.1933C53.1057 66.6308 52.9814 65.6194 52.6826 65.1586C52.434 64.7477 51.8704 64.5506 50.9907 64.5667C50.2601 64.5833 49.7791 64.8142 49.5467 65.2594C49.431 65.6712 49.3144 66.0836 49.1987 66.4955C49.0328 66.9406 48.6762 67.1634 48.1283 67.1634C47.3982 67.1634 47.0338 66.8503 47.0338 66.2232C47.0338 65.4161 47.5396 64.7895 48.5513 64.3444C49.3311 64.0147 50.2108 63.8499 51.1895 63.8499C53.8774 63.866 55.2213 64.7871 55.2213 66.6128V72.7054C55.2213 73.5938 55.4699 74.0294 55.9676 74.0128C56.2995 74.0128 56.5772 73.8361 56.8015 73.4812C57.0257 73.1273 57.1873 72.9496 57.2872 72.9496C57.3862 72.9496 57.4737 72.9867 57.5483 73.0608C57.6228 73.1349 57.6434 73.2057 57.6099 73.2708Z" fill="#8491A0"/>
<path id="Vector_5" d="M67.3764 73.2797C66.2978 74.6754 64.9706 75.3728 63.3948 75.3728C61.752 75.3728 60.4415 74.8531 59.4624 73.8117C58.4832 72.7714 57.9941 71.4165 57.9941 69.7476C57.9941 68.0792 58.5377 66.6749 59.6244 65.5348C60.7107 64.3956 62.0919 63.8331 63.7677 63.8497C64.5307 63.8497 65.2775 64.0146 66.0081 64.3443C66.9203 64.7566 67.3764 65.3001 67.3764 65.9766C67.3764 66.6188 67.0446 66.9405 66.381 66.9405C65.9828 66.9405 65.672 66.7514 65.4478 66.3718C65.2235 65.9927 65.0127 65.6136 64.8133 65.234C64.515 64.8388 64.0995 64.6407 63.5688 64.6407C62.4735 64.6407 61.6444 65.1699 61.0803 66.2269C60.649 67.0706 60.4334 68.0953 60.4334 69.3015C60.4334 70.6236 60.6983 71.74 61.2299 72.6483C61.8601 73.7723 62.7809 74.3343 63.9919 74.3343C64.6885 74.3343 65.3526 74.0839 65.9828 73.5842C66.1152 73.4673 66.5216 73.0417 67.2024 72.3082C67.2856 72.2246 67.3602 72.1828 67.4261 72.1828C67.5758 72.1828 67.6504 72.3077 67.6504 72.5566C67.6504 72.806 67.5591 73.0469 67.3764 73.2797Z" fill="#8491A0"/>
<path id="Vector_6" d="M76.3542 67.5554C76.2543 65.5963 75.4664 64.6248 73.99 64.6409C72.3975 64.6575 71.4432 65.7948 71.1276 68.0537H74.2386C75.6658 68.0537 76.3705 67.8875 76.3542 67.5554ZM78.7185 68.5972C78.7185 68.7792 78.6271 68.886 78.4445 68.9188H77.8971H71.0286C71.0119 69.1497 71.0038 69.3231 71.0038 69.4381C71.0038 70.7906 71.2524 71.886 71.7501 72.7274C72.3802 73.7654 73.3259 74.2851 74.5876 74.2851C75.4167 74.2851 76.1219 74.1036 76.7028 73.7411C77.0016 73.543 77.4405 73.1392 78.0214 72.5293C78.0874 72.4637 78.162 72.4305 78.2451 72.4305C78.4608 72.4305 78.5693 72.5293 78.5693 72.7274C78.5693 72.7929 78.544 72.8675 78.4947 72.9492C77.5485 74.5487 76.0554 75.3397 74.0149 75.3236C72.3884 75.3065 71.0784 74.7839 70.083 73.7535C69.0875 72.7231 68.5898 71.4081 68.5898 69.8091C68.5898 68.1606 69.0789 66.7678 70.0576 65.63C71.1032 64.4271 72.4386 63.8333 74.0646 63.8499C75.3086 63.8499 76.3456 64.2205 77.1756 64.9625C78.1873 65.8523 78.7017 67.0642 78.7185 68.5972Z" fill="#8491A0"/>
<path id="Vector_7" d="M93.302 58.6076C93.302 58.8546 93.215 59.0732 93.0405 59.2627C92.866 59.4523 92.6547 59.5473 92.4056 59.5473C92.0078 59.5473 91.6923 59.2589 91.4604 58.6817C91.228 58.1045 90.9211 57.8162 90.54 57.8162C89.6771 57.8162 88.9962 58.3207 88.4985 59.3302C88.3164 59.6779 88.0262 60.5468 87.6274 61.9368L86.9562 64.2703H89.4194C89.635 64.2703 89.7435 64.3724 89.7435 64.5758C89.7435 64.9159 89.5604 65.086 89.1951 65.086H86.7573L84.2683 74.4057C83.6869 76.5753 83.1151 78.1781 82.5514 79.2138C81.522 81.0708 80.2364 82 78.6931 82C78.1127 82 77.5982 81.8352 77.1503 81.5055C76.7023 81.1753 76.4785 80.7387 76.4785 80.1948C76.4785 79.4532 76.8146 79.0822 77.4854 79.0822C77.9444 79.0822 78.2312 79.2632 78.3455 79.6261C78.378 79.7577 78.3948 80.1121 78.3948 80.6893C78.3948 81.0684 78.5697 81.2584 78.9192 81.2584C79.6192 81.2584 80.2355 80.6323 80.7681 79.3815C81.0019 78.8385 81.2935 77.9083 81.6425 76.5914L84.6914 65.086H82.1029C81.9538 65.086 81.8787 64.9924 81.8787 64.8057C81.8787 64.4485 82.0365 64.2703 82.3525 64.2703H84.841C85.5037 62.1435 86.151 60.5857 86.7812 59.5967C87.8598 57.8651 89.1951 57 90.7882 57C91.3691 57 91.9079 57.124 92.4056 57.3705C93.0032 57.6675 93.302 58.0798 93.302 58.6076Z" fill="#8491A0"/>
<path id="Vector_8" d="M95.694 66.5201C95.694 65.1681 95.2375 64.4921 94.3252 64.4921C93.2801 64.4921 92.3172 65.589 91.4389 67.7809C90.6916 69.6441 90.3182 71.2018 90.3182 72.4545C90.3182 73.8892 90.8073 74.6061 91.787 74.6061C92.8154 74.6061 93.7611 73.4935 94.624 71.2678C95.3374 69.3885 95.694 67.8061 95.694 66.5201ZM97.5104 67.8308C97.5104 69.5453 96.9969 71.169 95.9675 72.7021C94.8062 74.4327 93.4044 75.2987 91.7616 75.2987C90.6835 75.2987 89.854 74.8697 89.2731 74.0123C88.7419 73.2707 88.4766 72.3481 88.4766 71.2427C88.4766 69.5453 88.9996 67.9135 90.0448 66.3472C91.2228 64.5995 92.6246 63.7258 94.2502 63.7258C95.3288 63.7258 96.1583 64.1548 96.7392 65.0113C97.2536 65.7705 97.5104 66.7097 97.5104 67.8308Z" fill="#8491A0"/>
<path id="Vector_9" d="M107.587 65.0859C107.587 65.3828 107.5 65.6545 107.326 65.9025C107.152 66.149 106.923 66.273 106.641 66.273C106.359 66.273 106.143 66.1001 105.994 65.7538C105.844 65.4079 105.646 65.2345 105.397 65.2345C104.484 65.2345 102.991 68.4821 100.918 74.9771H98.9766C99.4743 73.312 99.972 71.6388 100.47 69.9576C101.249 67.3035 101.639 65.8113 101.639 65.4816C101.639 65.2018 101.515 65.0611 101.266 65.0611C100.818 65.0611 100.395 65.3334 99.9963 65.8773C99.8639 66.0426 99.5986 66.4954 99.2008 67.2374C99.1009 67.435 98.9598 67.5339 98.7777 67.5339C98.5286 67.5339 98.4043 67.435 98.4043 67.2374L98.4286 67.1381C98.6443 66.3144 99.0674 65.5647 99.6985 64.8882C100.411 64.1462 101.166 63.7756 101.963 63.7756C102.841 63.7756 103.281 64.2787 103.281 65.284C103.281 65.597 103.223 65.9851 103.108 66.4459C102.991 66.8417 102.884 67.2293 102.784 67.6084C104.044 65.0535 105.231 63.7756 106.342 63.7756C106.707 63.7756 107.006 63.9034 107.239 64.159C107.47 64.4146 107.587 64.7234 107.587 65.0859Z" fill="#8491A0"/>
<path id="Vector_10" d="M130.308 74.6804C130.292 74.8785 130.159 74.9773 129.91 74.9773H123.34C123.091 74.9773 122.958 74.8785 122.942 74.6804C122.925 74.516 123.116 74.384 123.514 74.2852C124.194 74.0871 124.551 73.9797 124.584 73.9635C125.132 73.7327 125.405 72.8429 125.405 71.2928V59.6215L118.984 74.6557C118.836 75.002 118.719 75.1749 118.636 75.1749C118.553 75.1749 118.413 74.9526 118.213 74.5075L112.688 61.8961C112.389 61.2206 112.091 60.6519 111.792 60.1897L111.941 71.2928C111.958 72.0842 111.992 72.6201 112.041 72.9004C112.157 73.4438 112.398 73.7992 112.763 73.9635C112.796 73.9797 113.153 74.0871 113.833 74.2852C114.231 74.384 114.422 74.516 114.406 74.6804C114.389 74.8785 114.257 74.9773 114.007 74.9773H108.682C108.433 74.9773 108.3 74.8785 108.284 74.6804C108.267 74.516 108.457 74.384 108.856 74.2852C109.536 74.0871 109.893 73.9797 109.926 73.9635C110.29 73.7992 110.531 73.4277 110.647 72.8505C110.714 72.5707 110.747 72.0514 110.747 71.2928L110.871 59.1265C110.606 58.9132 110.216 58.698 109.702 58.4837C109.337 58.3849 108.98 58.278 108.632 58.1621C108.233 58.0633 108.043 57.9317 108.06 57.7664C108.075 57.5683 108.209 57.47 108.457 57.47H111.444C112.571 57.4871 113.219 57.5403 113.385 57.6305C113.55 57.7218 113.8 58.1541 114.132 58.9289L119.433 71.2681L125.157 57.841C125.256 57.5935 125.48 57.47 125.828 57.47H129.91C130.159 57.47 130.292 57.5683 130.308 57.7664C130.324 57.9317 130.134 58.0633 129.736 58.1621C129.055 58.3602 128.699 58.4676 128.666 58.4837C128.118 58.7151 127.844 59.6054 127.844 61.1545V71.2928C127.844 72.8429 128.118 73.7327 128.666 73.9635C128.699 73.9797 129.055 74.0871 129.736 74.2852C130.134 74.384 130.324 74.516 130.308 74.6804Z" fill="#8491A0"/>
<path id="Vector_11" d="M139.814 69.6235C139.814 68.252 139.589 67.1285 139.141 66.252C138.561 65.1123 137.656 64.5423 136.429 64.5423C135.201 64.5423 134.297 65.129 133.717 66.3024C133.269 67.1784 133.045 68.2933 133.045 69.6487C133.045 70.9703 133.269 72.0696 133.717 72.9451C134.314 74.0691 135.218 74.6311 136.429 74.6311C137.656 74.6311 138.561 74.0691 139.141 72.9451C139.589 72.0696 139.814 70.9622 139.814 69.6235ZM142.202 69.4748C142.202 71.1598 141.655 72.5641 140.56 73.6881C139.465 74.8116 138.071 75.3731 136.379 75.3731C134.687 75.3731 133.318 74.8444 132.274 73.7869C131.227 72.7294 130.705 71.3499 130.705 69.6487C130.705 67.9636 131.253 66.5755 132.348 65.4848C133.442 64.3945 134.837 63.8501 136.529 63.8501C138.137 63.8501 139.486 64.3869 140.573 65.4605C141.659 66.5342 142.202 67.8724 142.202 69.4748Z" fill="#8491A0"/>
<path id="Vector_12" d="M163.681 74.6811C163.664 74.8788 163.531 74.9771 163.282 74.9771H157.907C157.658 74.9771 157.525 74.8788 157.509 74.6811C157.493 74.55 157.683 74.4346 158.081 74.3353C158.595 74.2203 158.956 74.0935 159.164 73.9538C159.371 73.8137 159.475 72.9296 159.475 71.3016V68.0954C159.475 67.0916 159.351 66.36 159.102 65.8997C158.77 65.275 158.131 64.9624 157.185 64.9624C156.389 64.9624 155.708 65.2051 155.145 65.6902C154.58 66.1757 154.299 66.7714 154.299 67.4788V71.3016C154.315 72.2883 154.323 72.8308 154.323 72.9296C154.357 73.522 154.456 73.8669 154.622 73.9657C154.787 74.065 155.145 74.1795 155.692 74.3111C156.09 74.4099 156.28 74.5329 156.265 74.6811C156.248 74.8788 156.115 74.9771 155.867 74.9771H150.491C150.242 74.9771 150.109 74.8788 150.093 74.6811C150.076 74.55 150.267 74.4346 150.665 74.3353C151.179 74.2203 151.539 74.0935 151.748 73.9538C151.955 73.8137 152.059 72.9296 152.059 71.3016V68.0954C152.059 67.0916 151.935 66.36 151.685 65.8997C151.354 65.275 150.715 64.9624 149.769 64.9624C148.972 64.9624 148.293 65.2051 147.729 65.6902C147.165 66.1757 146.883 66.7714 146.883 67.4788V71.3016C146.883 72.9629 146.99 73.8507 147.206 73.9657C147.322 74.0317 147.678 74.1386 148.276 74.2864C148.674 74.4013 148.865 74.5329 148.849 74.6811C148.831 74.8788 148.699 74.9771 148.451 74.9771H143.075C142.826 74.9771 142.693 74.8783 142.677 74.6802C142.66 74.5486 142.859 74.4417 143.273 74.3586C143.788 74.2598 144.145 74.1239 144.344 73.951C144.543 73.7781 144.643 72.8916 144.643 71.2925V66.5695C144.643 66.1244 144.602 65.8317 144.518 65.6916C144.435 65.5519 144.186 65.4816 143.771 65.4816C143.141 65.4816 142.826 65.3828 142.826 65.1852C142.826 64.9709 143.024 64.8222 143.422 64.7396C144.383 64.542 145.328 64.2702 146.255 63.9234C146.405 63.8906 146.504 63.874 146.554 63.874C146.703 63.874 146.794 63.9819 146.828 64.1961C146.843 64.3443 146.86 64.7648 146.877 65.4569C147.241 64.9866 147.775 64.6051 148.48 64.313C149.184 64.0208 149.909 63.874 150.654 63.874C152.378 63.874 153.455 64.5092 153.886 65.7785C154.88 64.5092 156.271 63.874 158.061 63.874C159.42 63.874 160.356 64.2441 160.87 64.9847C161.433 65.7909 161.714 67.0574 161.714 68.7842V70.0184V71.3011C161.714 72.2384 161.723 72.7814 161.739 72.9291C161.773 73.522 161.872 73.8669 162.038 73.9657C162.204 74.0645 162.561 74.1795 163.109 74.3111C163.506 74.4099 163.697 74.5329 163.681 74.6811Z" fill="#8491A0"/>
<path id="Vector_13" d="M165.906 73.5649C165.858 73.5464 165.791 73.5369 165.703 73.5369H165.618V73.9222H165.755C165.836 73.9222 165.899 73.9056 165.945 73.8728C165.991 73.8405 166.014 73.7882 166.014 73.7155C166.014 73.6433 165.978 73.593 165.906 73.5649ZM165.269 74.63V73.3032C165.352 73.3032 165.476 73.3037 165.64 73.3041C165.806 73.3046 165.897 73.3056 165.916 73.3065C166.021 73.3141 166.109 73.3369 166.179 73.3749C166.298 73.4395 166.357 73.5455 166.357 73.6913C166.357 73.8029 166.326 73.8832 166.263 73.9326C166.201 73.9825 166.123 74.012 166.032 74.022C166.116 74.0391 166.179 74.0647 166.221 74.0984C166.3 74.1616 166.339 74.2609 166.339 74.3963V74.5146C166.339 74.5274 166.34 74.5407 166.342 74.5535C166.344 74.5664 166.347 74.5797 166.352 74.5925L166.364 74.63H166.03C166.019 74.5873 166.012 74.5265 166.008 74.4462C166.005 74.3664 165.997 74.3122 165.986 74.2842C165.969 74.2376 165.936 74.2053 165.888 74.1868C165.862 74.1759 165.822 74.1687 165.769 74.1654L165.692 74.1607H165.618V74.63H165.269ZM165.089 73.2709C164.897 73.4657 164.801 73.6965 164.801 73.964C164.801 74.2414 164.899 74.4766 165.094 74.6704C165.288 74.8642 165.522 74.9611 165.797 74.9611C166.07 74.9611 166.304 74.8638 166.498 74.669C166.692 74.4728 166.789 74.2381 166.789 73.964C166.789 73.6975 166.692 73.4666 166.499 73.2709C166.304 73.0718 166.07 72.9721 165.797 72.9721C165.52 72.9721 165.284 73.0718 165.089 73.2709ZM166.64 74.8229C166.406 75.0481 166.125 75.1607 165.797 75.1607C165.458 75.1607 165.173 75.0457 164.94 74.8148C164.708 74.5844 164.592 74.3008 164.592 73.964C164.592 73.6144 164.718 73.3236 164.968 73.0923C165.203 72.8756 165.48 72.7673 165.797 72.7673C166.129 72.7673 166.413 72.8842 166.648 73.1184C166.883 73.3521 167.001 73.6343 167.001 73.964C167.001 74.3041 166.881 74.5901 166.64 74.8229Z" fill="#8491A0"/>
</g>
</g>
</svg>
