<svg width="180" height="140" viewBox="0 0 180 140" fill="none" xmlns="http://www.w3.org/2000/svg">
<g id="Group 61">
<rect id="Rectangle 39" x="0.5" y="0.5" width="179" height="139" stroke="#181823"/>
<g id="Group 60">
<path id="Vector" d="M86.6427 69.1573C89.3291 68.2706 89.8166 66.0292 89.8101 64.2027C89.8049 61.4142 87.8245 59.0018 81.9617 59.0018L71.0195 59V79.9568H81.9336C87.8311 79.9568 90.0012 76.9471 90.0012 73.9324C90.0012 70.2819 86.6427 69.1573 86.6427 69.1573ZM76.2124 63.5593H83.5794L83.6061 63.5647C84.4377 63.7111 85.0431 64.414 85.0431 65.2386C85.0431 66.0823 84.3944 66.8766 83.5372 66.9929L76.2174 67.0039L76.2124 63.5593ZM83.225 75.0728H76.2124V71.5641H83.3968L83.4137 71.5659C84.3075 71.6684 84.9845 72.4069 84.9845 73.2846C84.9845 74.241 84.1832 75.0581 83.225 75.0728Z" fill="#8491A0"/>
<path id="Vector_2" d="M114.504 59.0027H132.995L132.985 63.5767H119.642L119.654 66.9546H131.684V71.5521H119.654V75.2073H132.999L132.997 80H114.504V59.0027Z" fill="#8491A0"/>
<path id="Vector_3" d="M103.749 59.0303H92.5664V79.9938H97.7013V71.5121C97.7013 71.5121 103.355 71.5057 103.356 71.5057C104.976 71.5304 106.235 72.8492 106.235 74.4754V79.9755L111.262 79.9737L111.252 73.2077C111.252 70.0735 108.206 69.1474 108.206 69.1474C108.206 69.1474 111.32 68.2211 111.32 64.5157C111.32 59.982 107.4 59.0303 103.749 59.0303ZM106.551 65.5343C106.459 66.2234 105.766 66.9711 104.9 66.9711L97.6837 66.9739V63.617H104.904C105.766 63.617 106.442 64.2485 106.551 65.0769V65.5343Z" fill="#8491A0"/>
<path id="Vector_4" d="M67.6896 74.928C67.6157 74.9299 60.6706 75.0634 58.273 74.8309C54.4109 74.4549 53.0433 71.6115 53.0433 69.2906C53.0433 66.3969 55.0278 64.2674 58.1022 63.8675C59.5647 63.6771 67.5627 63.7668 67.6472 63.7676L67.8154 63.7696L67.8324 59.0024L67.6625 59.0034L58.6104 59.0199C57.6027 59.0812 55.9319 59.1819 54.221 59.8774C52.5775 60.6259 51.1471 61.7755 50.079 63.206C48.7196 65.027 48 67.1877 48 69.4543C48 70.1673 48.0567 70.8748 48.1726 71.5538C48.8241 74.7322 50.9202 77.3623 53.9259 78.7772C54.9408 79.221 56.5061 79.7536 59.6628 79.9293C59.6693 79.9293 61.3634 79.9649 61.3634 79.9649L67.674 79.9713H67.8407L67.8585 74.926L67.6896 74.928Z" fill="#8491A0"/>
</g>
</g>
</svg>
