<svg width="48" height="48" viewBox="0 0 48 48" fill="none" xmlns="http://www.w3.org/2000/svg">
<g id="Group 148">
<rect id="Rectangle 73" width="48" height="48" fill="#5221E6"/>
<g id="Group 147">
<path id="Vector" d="M30 27.2595V19.5318C30 19.0627 29.7035 18.75 29.2258 18.75L21.4925 18.7665C21.0313 18.7665 20.7348 19.1039 20.7348 19.4907C20.7348 19.8775 21.0725 20.2067 21.4595 20.2067H23.9055L27.8258 20.0585L26.3351 21.3753L18.9806 28.7409C18.8324 28.889 18.75 29.0701 18.75 29.2429C18.75 29.6297 19.0959 30 19.4994 30C19.6889 30 19.8618 29.9259 20.0101 29.7778L27.3728 22.4122L28.6987 20.9226L28.5423 24.6672V27.2924C28.5423 27.671 28.8717 28.0167 29.2752 28.0167C29.6623 28.0167 30 27.6957 30 27.2595Z" fill="white"/>
</g>
</g>
</svg>
