<svg width="26" height="26" viewBox="0 0 26 26" fill="none" xmlns="http://www.w3.org/2000/svg">
<path id="Vector" fill-rule="evenodd" clip-rule="evenodd" d="M19.2336 1.60145C18.4975 0.865344 17.3874 0.65156 16.4305 1.06163L7.00714 5.10023C5.8941 5.57725 5.03594 6.506 4.65549 7.65985C3.76246 10.3683 2.60708 13.947 1.67428 17.0061C1.20815 18.5348 0.795621 19.9403 0.498919 21.0448C0.35075 21.5964 0.229365 22.0808 0.144391 22.4717C0.0652554 22.8359 0 23.1945 0 23.453V23.8045L2.19436 25.9989H2.54586C2.80447 25.9989 3.16311 25.9337 3.52722 25.8546C3.91819 25.7696 4.40255 25.6482 4.95417 25.5001C6.05877 25.2034 7.46417 24.7908 8.99285 24.3247C12.052 23.3919 15.6306 22.2364 18.3392 21.3435C19.493 20.963 20.4217 20.1049 20.8988 18.9918L24.9374 9.56841C25.3474 8.61158 25.1336 7.50146 24.3975 6.76535L19.2336 1.60145ZM17.0992 2.62165C17.4181 2.48495 17.7881 2.55622 18.0335 2.80159L23.1973 7.96549C23.4428 8.21086 23.5141 8.58089 23.3773 8.89984L19.3387 18.3233C19.0518 18.9925 18.4955 19.5047 17.8076 19.7315C15.1052 20.6225 11.5399 21.7736 8.49784 22.7012C6.97594 23.1653 5.59147 23.5715 4.51389 23.8609C3.97444 24.0058 3.51965 24.1194 3.16676 24.1961C3.09215 24.2122 3.02327 24.2266 2.9601 24.239L11.6316 15.5675C12.5779 16.0196 13.7457 15.8536 14.5295 15.0699C15.5237 14.0756 15.5237 12.4637 14.5295 11.4695C13.5353 10.4753 11.9233 10.4753 10.9291 11.4695C10.1453 12.2533 9.97941 13.4212 10.4315 14.3674L1.7599 23.0389C1.77238 22.9758 1.78668 22.9069 1.80291 22.8322C1.87961 22.4793 1.99315 22.0245 2.13806 21.4851C2.42749 20.4075 2.83366 19.0231 3.29772 17.5012C4.22533 14.459 5.37634 10.8936 6.26738 8.19131C6.49416 7.5035 7.00635 6.94711 7.67571 6.66024L17.0992 2.62165Z" fill="#5221E6"/>
</svg>
